# xmcd
# Copyright (C) 1995-1998 Ti Kan
#
# Track frame offsets:
#       150
#       20202
#       37575
#       56137
#       73612
#       88350
#       107157
#       120222
#       135525
#       149250
#       161287
#       175950
#
# Disc length: 2547 seconds
#
# Revision: 1
# Processed by: cddbd v1.5.1PL0 Copyright (c) Steve Scherf et al.
# Submitted via: CD-Transfer v1.0
#
DISCID=a109f10c
DTITLE=Ciderman - the rabbits dream
DYEAR=00
DGENRE=
TTITLE0=Be My Star
TTITLE1=Marguerite
TTITLE2=You Didn't Ask Me But I Came
TTITLE3=Hear You Talking
TTITLE4=Mother To Son
TTITLE5=Winter Cover
TTITLE6=Letting Go
TTITLE7=Swallow It Down
TTITLE8=In Your Arms
TTITLE9=Who Wants To Tell You
TTITLE10=Soundburst
TTITLE11=The Wrong Idea
EXTD=
EXTT0=
EXTT1=
EXTT2=
EXTT3=
EXTT4=
EXTT5=
EXTT6=
EXTT7=
EXTT8=
EXTT9=
EXTT10=
EXTT11=
PLAYORDER=
